<?xml version="1.0" encoding="UTF-8" standalone="no"?>
<svg xmlns:xlink="http://www.w3.org/1999/xlink" height="119.85px" width="143.65px" xmlns="http://www.w3.org/2000/svg">
  <g transform="matrix(1.0, 0.0, 0.0, 1.0, 71.8, 59.9)">
    <path d="M13.1 -55.9 L12.9 -58.25 Q18.1 -55.55 22.4 -51.9 L22.9 -51.75 Q24.45 -41.7 31.95 -37.45 L32.05 -37.1 Q27.75 -35.0 22.8 -38.15 L22.3 -38.3 Q19.5 -44.1 14.35 -44.4 L13.75 -44.4 Q13.6 -43.3 13.1 -42.55 L13.15 -50.3 13.1 -55.9 M37.4 -57.15 L37.55 -56.65 Q35.5 -46.55 26.55 -49.2 25.5 -49.5 25.95 -51.15 36.9 -53.55 30.35 -58.65 30.2 -58.8 30.2 -59.1 34.1 -61.4 37.4 -57.15 M39.85 -48.05 L39.5 -48.75 Q39.5 -49.45 39.9 -49.95 L40.55 -50.4 41.85 -49.3 Q42.75 -48.5 42.75 -47.8 L42.55 -47.7 40.75 -46.9 39.85 -48.05 M33.9 -57.8 L33.9 -57.55 34.0 -57.55 33.9 -57.8 M13.1 -27.95 Q14.9 -22.5 13.8 -16.95 L13.75 -16.3 Q20.2 -8.15 25.6 1.25 L25.95 1.4 Q25.6 20.6 13.6 28.45 10.65 30.4 8.55 33.4 6.0 37.05 2.1 36.2 -1.4 37.85 -4.7 39.75 L-5.2 39.9 Q-10.35 38.55 -16.1 36.55 L-16.2 36.2 Q-15.1 28.85 -21.15 25.95 L-21.7 25.85 Q-24.25 28.45 -27.4 23.25 -28.8 21.0 -31.5 19.7 -41.85 19.4 -50.3 24.25 L-50.4 24.6 Q-60.95 25.7 -70.1 27.75 -71.95 28.1 -71.8 25.85 -66.75 18.35 -68.0 4.45 -68.45 -0.45 -67.55 -4.1 -60.95 -9.15 -51.05 -10.75 L-50.4 -10.8 Q-46.35 -13.8 -43.8 -18.2 L-43.7 -18.75 Q-41.15 -18.3 -40.4 -19.85 L-40.05 -20.0 Q-37.65 -25.25 -32.05 -27.25 L-31.5 -27.3 Q-27.2 -24.8 -24.7 -25.95 L-24.15 -26.1 Q-22.8 -32.05 -16.25 -33.1 L-16.2 -33.45 Q-9.8 -34.3 -8.55 -30.35 L-8.9 -30.35 Q-11.25 -27.95 -9.85 -25.0 -9.8 -24.85 -9.5 -24.85 -5.35 -20.75 -0.25 -17.65 L0.3 -17.55 Q4.1 -20.4 6.6 -24.75 L7.0 -24.85 Q6.8 -30.3 8.15 -34.05 L8.25 -34.65 Q10.05 -30.95 12.65 -28.1 12.8 -27.95 13.1 -27.95 M67.5 -26.1 Q70.95 -27.15 71.55 -24.7 72.65 -20.05 69.95 -18.15 67.5 -20.65 67.5 -25.5 L67.5 -26.1 M51.8 -38.05 L52.4 -39.25 53.0 -40.25 Q54.1 -39.95 55.25 -38.4 L56.15 -37.3 Q55.85 -36.5 55.25 -35.85 53.2 -36.65 51.8 -38.05 M46.8 -43.15 Q46.1 -42.05 45.35 -42.05 L44.6 -42.25 Q44.15 -42.8 43.8 -43.75 45.8 -45.8 47.95 -44.6 L46.8 -43.15 M56.5 -15.1 Q62.75 -11.9 64.95 -4.7 L65.05 -4.1 Q56.65 -5.15 56.5 -14.5 L56.5 -15.1 M54.05 46.6 Q50.85 52.9 44.15 56.15 L41.4 57.85 Q36.35 61.55 30.85 58.8 43.15 53.75 53.55 46.75 L54.05 46.6 M66.6 43.4 Q62.75 46.15 58.95 46.0 60.4 41.95 62.95 39.1 65.95 35.8 67.5 36.75 L68.7 37.45 Q71.2 40.1 66.6 43.4 M-6.9 50.4 Q-10.2 53.75 -11.95 50.25 -9.85 45.4 -6.15 49.65 L-6.9 50.4" fill="#6fc9d3" fill-rule="evenodd" stroke="none"/>
  </g>
</svg>
