<?xml version="1.0" encoding="UTF-8" standalone="no"?>
<svg xmlns:xlink="http://www.w3.org/1999/xlink" height="162.25px" width="91.75px" xmlns="http://www.w3.org/2000/svg">
  <g transform="matrix(1.0, 0.0, 0.0, 1.0, 47.7, 80.85)">
    <path d="M43.7 -51.9 Q44.65 -47.75 43.0 -43.3 L42.6 -43.15 Q38.25 -37.75 34.45 -31.7 L34.15 -31.7 Q35.3 -17.05 29.6 -6.65 L28.95 -6.65 Q18.3 -5.45 13.1 1.3 L13.1 1.9 Q13.65 10.1 10.05 17.15 9.75 17.15 9.65 17.3 L6.5 22.4 Q4.45 22.5 2.25 23.95 L0.45 25.3 Q-2.3 25.15 -3.4 25.7 L-3.7 25.7 Q-1.95 29.15 -2.2 34.9 L-2.25 35.2 Q-8.0 36.4 -11.95 39.15 L-11.55 40.4 Q-11.35 41.6 -11.55 41.65 -15.5 42.25 -16.85 45.9 -16.55 45.9 -16.4 46.05 -12.15 51.2 -17.45 57.5 L-16.95 57.65 Q-13.8 59.6 -13.2 64.2 L-13.3 64.75 Q-16.1 69.65 -15.0 75.2 -23.65 74.95 -26.4 68.65 -29.15 62.2 -31.5 58.1 L-31.35 57.6 Q-28.8 53.75 -32.1 47.7 L-32.6 47.55 -35.8 44.05 -35.8 43.45 Q-39.6 18.25 -38.95 -5.8 L-39.15 -8.1 -39.6 -11.45 Q-39.9 -13.0 -41.15 -15.6 L-42.3 -18.05 Q-42.3 -20.0 -40.3 -19.8 -38.35 -19.6 -37.5 -17.75 L-36.5 -12.65 -36.1 -8.05 -36.0 -7.6 -35.2 -4.5 -34.95 -4.4 -34.4 -3.75 -33.6 -3.2 -31.5 -4.7 -30.3 -5.65 Q-29.75 -5.6 -29.2 -5.15 L-28.9 -5.35 -28.45 -5.35 Q-27.65 -5.35 -27.1 -6.7 L-26.6 -7.0 -24.95 -8.95 Q-23.9 -9.95 -22.4 -10.65 -21.6 -11.0 -21.4 -12.85 L-21.25 -13.45 -20.45 -13.45 -18.35 -13.3 Q-13.9 -13.3 -13.0 -14.2 -12.85 -14.35 -12.85 -16.0 L-13.05 -19.15 Q-13.3 -20.95 -13.9 -21.6 L-14.75 -22.8 -17.3 -25.15 -18.65 -26.25 -18.4 -28.8 Q-18.4 -29.95 -24.6 -35.55 -30.9 -41.15 -32.6 -41.15 L-40.3 -39.35 -40.4 -40.3 -40.3 -41.0 -40.2 -41.65 -40.05 -43.0 -40.0 -43.15 -39.6 -45.2 Q-39.6 -47.4 -41.8 -48.25 L-42.95 -48.9 -44.05 -48.8 Q-46.85 -48.8 -47.7 -49.8 L-47.5 -51.5 -47.55 -51.8 Q-47.55 -54.05 -47.0 -55.1 L-46.55 -56.0 Q-46.05 -56.8 -45.3 -56.65 -44.05 -57.75 -42.55 -58.05 L-40.4 -62.55 -37.95 -66.7 Q-36.85 -68.7 -36.85 -69.95 -36.85 -70.9 -37.4 -73.65 -38.0 -76.4 -38.0 -77.6 -38.0 -78.5 -36.1 -79.3 -33.65 -80.35 -29.2 -80.35 L-23.9 -77.15 Q-18.3 -73.9 -16.4 -73.9 L-12.25 -74.05 -9.9 -75.65 Q-8.6 -76.6 -5.35 -75.3 L-5.25 -75.3 Q-3.55 -75.3 -1.25 -77.5 L-0.5 -78.25 1.5 -80.85 Q4.45 -76.6 4.0 -70.9 L4.2 -70.7 6.5 -68.45 Q8.15 -68.6 8.7 -67.65 L8.8 -67.2 8.9 -67.15 9.35 -66.85 10.2 -66.4 11.55 -65.55 Q17.4 -67.55 18.6 -62.25 L19.85 -61.85 Q25.15 -60.65 33.25 -59.8 L33.7 -59.65 Q37.9 -55.3 43.65 -52.5 L43.7 -51.9 M-29.95 -4.7 L-30.1 -4.55 -29.9 -4.65 -29.95 -4.7 M-6.15 81.3 L-6.45 81.3 Q-12.45 82.1 -13.15 77.65 L-13.2 77.05 Q-6.25 77.45 -6.15 81.3" fill="#6fc9d3" fill-rule="evenodd" stroke="none"/>
  </g>
</svg>
