<?xml version="1.0" encoding="UTF-8" standalone="no"?>
<svg xmlns:xlink="http://www.w3.org/1999/xlink" height="297.35px" width="408.65px" xmlns="http://www.w3.org/2000/svg">
  <g transform="matrix(1.0, 0.0, 0.0, 1.0, 74.9, 61.35)">
    <path d="M243.3 2.6 L241.0 5.55 Q239.7 7.3 238.25 8.25 237.8 8.65 237.8 8.05 L238.85 6.75 240.85 4.75 Q241.75 3.85 241.95 2.5 L245.3 2.35 243.3 2.6 M230.4 24.45 L230.8 24.25 237.0 21.0 237.1 20.9 237.15 21.25 Q237.15 21.95 236.75 22.5 L235.8 23.55 235.1 24.35 233.25 25.8 231.5 26.05 230.25 26.0 227.25 27.25 227.15 27.3 227.1 27.35 225.4 28.65 223.35 30.9 222.0 32.6 221.35 33.4 220.25 35.4 218.55 37.5 217.65 37.55 Q216.15 38.45 213.8 39.0 L206.4 39.75 202.25 39.55 202.1 39.55 199.2 39.1 190.0 37.55 189.8 37.4 188.95 36.75 189.0 36.75 195.3 37.7 196.05 37.65 195.6 37.5 195.5 37.15 Q195.55 37.0 196.5 36.8 L197.9 36.6 200.3 36.65 196.25 35.65 196.3 35.35 196.3 35.5 200.3 36.1 201.05 36.0 198.0 34.9 202.15 35.9 204.5 35.45 205.9 35.25 203.05 35.15 203.05 34.65 205.9 33.7 203.15 33.6 204.2 33.45 203.8 32.9 Q203.8 32.4 206.1 32.35 L205.0 32.0 204.5 31.6 207.0 31.9 208.65 31.8 208.55 31.7 206.65 30.25 204.0 27.65 Q204.0 27.3 204.25 27.25 L204.55 27.25 202.85 25.7 201.1 24.25 Q201.85 24.55 204.6 26.35 207.15 28.1 209.5 28.8 L209.65 28.75 205.8 26.25 205.8 25.9 206.25 25.8 209.1 27.55 Q212.0 29.35 213.25 29.6 L213.3 29.55 207.5 25.75 207.55 25.1 209.65 26.15 209.0 25.6 Q209.0 25.25 209.25 25.05 L211.2 26.5 Q212.45 27.4 213.9 27.55 213.45 26.95 211.9 26.0 L209.25 24.4 209.1 24.25 Q209.8 24.3 212.2 25.85 L214.55 27.65 214.5 28.0 221.2 26.5 Q225.55 25.5 230.0 23.6 L230.1 24.4 230.4 24.45 M220.85 27.6 Q220.2 27.6 220.15 27.35 L220.1 27.1 214.45 28.1 214.35 28.1 214.0 28.25 Q215.8 29.0 216.0 29.55 L216.0 29.75 214.25 29.55 215.0 30.15 215.05 30.2 218.15 30.35 218.75 30.55 218.75 30.4 Q218.75 29.05 220.95 27.6 L220.85 27.6 M217.55 31.7 L217.75 31.65 217.7 31.6 217.55 31.7 M218.1 31.15 L217.7 31.25 217.75 31.25 217.85 31.45 218.1 31.15 M209.9 30.6 L210.3 30.7 Q209.7 30.35 209.5 30.35 L209.5 30.4 209.9 30.6 M204.8 27.5 L205.75 28.0 204.65 27.4 204.8 27.5 M207.55 30.15 L208.75 31.0 209.1 30.95 207.5 30.05 207.55 30.15 M206.75 32.85 L204.75 32.9 205.7 33.0 206.75 32.85 M215.0 37.9 L215.45 37.75 215.15 37.8 Q215.05 37.8 215.0 37.9 M186.55 21.6 Q187.5 22.3 187.5 22.8 L187.4 23.55 187.15 23.6 Q187.05 21.95 184.5 20.85 L184.75 20.75 Q185.6 20.95 186.55 21.6 M144.65 67.65 L144.6 68.5 143.55 68.65 Q143.2 68.65 142.0 68.05 L140.75 67.3 140.65 67.1 Q141.35 67.1 142.25 66.35 142.95 65.75 144.25 66.35 143.7 65.55 143.0 65.25 144.65 64.6 144.65 67.65 M144.15 67.75 L143.35 68.1 144.15 67.85 144.15 67.75" fill="#6fc9d3" fill-rule="evenodd" stroke="none"/>
    <path d="M29.15 -45.15 L30.7 -44.6 30.85 -44.7 34.9 -43.2 35.0 -42.85 Q43.55 -42.55 49.55 -39.55 L49.7 -39.2 Q41.85 -38.4 36.15 -39.4 L35.0 -39.2 Q37.15 -33.95 43.65 -30.15 43.85 -30.0 44.2 -30.0 49.7 -33.05 53.3 -36.5 L55.45 -38.15 57.55 -40.4 57.6 -40.4 Q59.75 -38.85 62.5 -38.25 L62.5 -38.55 Q68.35 -43.0 75.35 -40.5 L75.95 -40.4 Q81.65 -41.1 85.8 -43.35 L86.35 -43.45 Q95.25 -41.55 100.95 -42.55 L101.0 -42.85 Q97.4 -45.05 97.0 -50.15 L97.35 -50.15 Q103.4 -51.95 105.55 -46.6 L105.9 -46.5 Q107.6 -47.5 112.0 -48.85 L112.6 -48.95 Q114.3 -50.9 116.75 -52.25 L116.9 -52.6 Q123.25 -52.35 125.9 -55.8 L126.05 -56.3 Q133.15 -58.6 140.1 -58.45 140.7 -58.4 141.3 -58.75 146.6 -63.5 153.0 -59.5 L153.55 -59.35 Q159.75 -59.9 165.95 -57.2 166.75 -56.85 165.75 -56.9 161.95 -55.15 164.1 -52.75 164.25 -52.6 164.55 -52.6 179.45 -52.05 199.35 -52.0 L199.95 -52.0 Q204.35 -49.35 209.0 -46.85 L209.15 -46.5 Q218.0 -46.7 224.3 -49.8 L224.4 -50.15 239.7 -49.6 240.3 -49.55 Q242.6 -47.9 245.7 -46.85 L245.8 -46.5 Q254.65 -46.0 262.3 -46.5 L262.9 -46.5 Q270.75 -42.75 282.45 -43.35 L286.1 -42.85 Q291.6 -45.95 300.25 -43.9 312.65 -41.0 324.0 -37.35 329.25 -37.85 333.65 -35.3 L333.75 -34.9 Q330.85 -33.6 325.75 -35.95 320.45 -38.45 318.5 -34.3 316.85 -31.05 322.2 -29.5 L322.75 -29.4 Q321.05 -26.85 317.15 -23.45 L316.65 -23.3 Q309.6 -25.5 304.9 -20.4 L304.45 -20.25 Q308.2 -14.85 312.85 -10.3 L313.0 -9.85 Q312.75 -5.7 313.3 -0.1 L313.0 -0.1 Q304.35 -4.9 299.1 -13.0 298.95 -13.2 298.95 -13.5 302.9 -21.7 299.7 -26.45 299.55 -26.65 299.55 -26.95 296.75 -28.45 292.9 -26.0 292.5 -25.75 291.65 -26.4 290.95 -26.95 289.75 -26.95 284.85 -26.85 284.9 -22.05 L284.9 -21.45 Q281.6 -19.45 276.15 -20.4 L271.5 -21.15 267.15 -20.85 Q263.0 -19.55 260.85 -16.1 260.75 -15.95 260.45 -15.95 259.0 -11.35 259.55 -8.1 L259.85 -8.0 Q264.4 -4.25 272.05 -4.15 273.65 -4.15 274.5 -2.5 L279.4 -2.85 279.4 -2.5 Q284.15 1.9 288.4 6.75 L288.55 7.25 Q285.55 6.85 283.15 2.9 280.3 -1.75 277.55 -0.7 275.95 1.45 279.9 3.8 L280.0 4.2 Q282.95 16.05 275.85 22.0 274.7 22.95 274.5 21.9 272.2 22.85 271.1 24.5 269.8 24.8 269.25 25.15 267.95 24.75 266.3 22.85 L265.15 21.45 265.1 21.45 Q265.2 19.85 266.4 18.1 268.55 15.0 268.55 13.55 L267.7 11.85 Q266.65 10.15 265.55 10.15 265.1 10.15 264.3 11.0 L263.5 11.4 263.4 11.45 260.25 12.15 259.65 12.35 Q257.5 11.35 255.3 8.7 L253.4 6.7 253.2 6.35 252.85 5.25 Q252.35 3.45 251.1 3.0 L249.25 2.85 249.05 2.75 Q242.1 1.5 241.2 5.2 240.95 6.25 241.15 8.5 L241.25 10.1 Q240.7 10.5 240.1 11.15 L239.95 11.3 Q236.35 11.25 234.5 12.35 232.6 12.05 231.25 14.25 230.05 16.3 230.05 17.9 L230.1 18.85 230.85 19.0 232.8 18.75 234.0 18.6 237.1 19.95 237.6 21.05 237.65 21.1 236.8 22.15 236.55 22.55 236.2 22.65 230.75 24.3 222.85 26.25 221.4 28.45 Q218.85 32.2 218.4 32.2 L211.9 30.6 Q210.25 30.6 208.75 33.05 207.45 35.2 207.45 36.4 L207.65 36.85 200.85 37.75 190.3 37.75 189.8 37.4 186.4 35.05 185.1 32.5 183.35 29.4 Q182.0 26.55 179.1 27.25 176.3 27.9 176.3 29.8 L176.7 31.6 176.9 32.65 Q174.35 33.2 172.3 34.45 L171.85 35.6 171.7 35.7 Q169.65 35.4 167.45 37.65 L167.05 38.1 166.65 38.3 Q164.8 38.45 161.95 39.45 L161.6 39.6 158.6 39.6 155.95 40.05 152.9 39.0 147.1 39.45 143.5 39.9 142.75 39.8 140.65 40.9 139.95 41.95 Q139.45 42.95 139.45 44.35 L139.5 45.1 140.05 45.3 140.05 45.35 140.3 45.8 140.45 45.75 143.2 45.15 144.05 44.95 Q144.95 44.95 145.15 46.1 L145.45 46.9 146.75 46.85 Q147.05 46.55 147.7 46.55 148.3 46.55 149.3 47.25 L149.3 47.3 150.85 51.7 Q151.9 53.85 153.0 54.9 L153.0 54.95 153.15 56.75 153.25 57.3 Q151.85 60.6 150.55 61.25 148.8 62.1 148.05 64.0 L146.95 66.1 147.55 67.35 147.65 67.6 147.55 68.55 147.55 69.55 147.6 70.25 147.55 71.1 Q147.4 71.45 146.75 71.45 L145.85 71.35 145.5 71.35 142.55 71.05 Q138.5 74.6 136.5 74.6 135.6 74.6 135.25 74.0 L130.95 71.4 Q119.75 72.1 109.2 68.75 108.0 68.35 107.1 67.15 104.65 66.6 100.4 67.1 L99.75 67.15 96.05 65.4 95.5 65.3 Q92.65 58.7 86.95 58.25 L86.95 58.55 Q84.0 59.75 85.35 62.1 85.4 62.25 85.7 62.25 88.15 68.05 91.7 72.75 L91.85 73.25 Q94.9 72.3 98.15 76.75 L98.55 76.9 Q102.2 74.45 105.1 71.3 L105.25 70.8 Q108.25 76.65 114.3 79.6 L114.45 79.95 Q112.0 86.7 107.85 91.7 107.7 91.85 107.7 92.15 105.15 93.25 102.2 93.95 L101.6 94.0 Q93.1 102.9 78.4 105.55 L77.8 105.6 Q76.0 102.2 75.95 97.05 L75.95 96.45 Q71.2 91.4 67.2 85.6 67.1 85.45 66.8 85.45 L65.65 79.95 65.55 79.35 Q57.85 71.75 52.75 61.3 L52.6 61.4 52.05 57.7 51.55 56.35 51.9 55.15 51.9 55.1 Q56.55 49.4 53.85 40.9 L53.35 39.65 Q50.9 39.15 48.35 41.3 L47.85 41.45 Q44.4 40.9 42.2 39.2 L41.75 39.0 Q38.05 41.2 34.95 39.75 L34.4 39.65 31.45 31.55 31.7 31.25 30.8 30.25 29.3 28.8 29.2 28.9 Q24.9 27.8 21.15 31.8 21.0 31.95 21.0 32.25 24.75 38.2 20.4 38.35 19.8 38.35 19.8 37.15 23.05 34.2 16.75 32.95 L16.1 32.85 14.95 27.35 14.9 26.75 Q13.1 24.0 10.15 22.25 10.0 22.15 10.0 21.85 2.4 19.15 -1.95 16.25 L-2.8 16.35 Q-3.8 20.65 1.5 24.2 6.3 27.4 7.8 30.6 L7.55 31.05 Q6.5 34.4 2.7 30.35 -0.95 26.4 -5.3 22.95 L-6.45 21.85 -9.55 18.2 -14.9 20.9 -15.05 21.25 Q-19.45 21.1 -21.15 21.25 L-21.75 21.25 Q-29.75 27.6 -34.2 37.65 L-34.6 37.75 Q-39.55 39.2 -44.95 40.15 L-45.6 40.2 Q-48.35 38.7 -51.6 37.5 L-51.7 37.15 -50.5 23.1 -50.45 22.5 -36.4 23.1 -35.8 23.1 Q-31.2 19.1 -33.25 13.9 L-33.35 13.3 Q-35.25 10.65 -37.95 9.05 L-37.65 9.05 -30.3 6.7 -29.7 6.6 Q-22.85 -0.6 -12.55 -4.3 L-12.0 -4.4 Q-10.7 -5.85 -10.05 -7.8 L-10.2 -8.05 -9.9 -8.35 Q-9.3 -10.65 -9.5 -13.55 L-9.55 -14.2 Q-7.8 -9.1 -3.6 -11.95 L-3.4 -12.35 Q-1.6 -15.85 -5.95 -18.9 L-6.5 -19.05 -15.6 -19.35 -15.65 -19.7 Q-16.6 -23.8 -15.35 -26.9 L-15.05 -27.0 Q-3.1 -32.45 4.35 -42.4 L4.5 -42.9 Q16.05 -48.0 27.3 -45.65 L27.3 -45.6 29.15 -45.15 M87.55 14.0 L86.95 14.0 Q81.0 13.9 77.15 18.85 L77.3 19.3 Q81.7 24.1 85.1 29.85 L85.05 30.45 Q84.45 34.4 85.1 36.6 85.1 36.9 85.25 37.0 90.0 41.15 94.9 39.65 96.35 36.8 94.15 34.9 89.7 31.05 94.25 29.25 95.3 29.05 94.05 28.6 87.35 26.05 84.5 20.1 84.05 18.45 85.05 18.05 90.2 16.1 87.55 14.0 M187.45 37.75 L187.85 37.9 187.6 37.95 187.45 37.75 M179.5 32.3 L179.65 32.0 179.8 32.25 179.5 32.3 M234.35 14.75 L234.15 14.95 234.3 14.7 234.35 14.75 M261.25 21.15 L261.9 20.85 261.65 21.2 261.25 21.15 M255.05 9.8 L255.3 10.25 254.9 9.7 255.05 9.8 M111.55 -39.0 Q112.25 -39.45 112.25 -40.05 L112.1 -40.7 Q112.1 -41.65 110.25 -43.4 L110.2 -43.6 110.0 -43.65 109.55 -44.05 109.65 -43.7 Q109.2 -43.65 109.1 -43.2 L109.0 -42.0 108.25 -40.9 Q107.7 -40.1 107.7 -39.8 107.7 -39.4 107.95 -39.1 108.35 -38.45 109.55 -38.45 110.75 -38.45 111.55 -39.0 M6.95 -26.4 Q6.95 -26.1 7.1 -26.0 9.8 -24.05 10.65 -20.3 10.65 -20.0 10.45 -19.85 6.15 -16.5 3.9 -11.1 L3.35 -11.05 -2.8 -8.7 -2.8 -8.35 Q0.4 -8.25 2.05 -6.85 L2.6 -6.95 Q7.15 -9.15 11.85 -8.7 L12.45 -8.75 Q15.55 -9.85 14.9 -14.8 L14.95 -15.1 Q23.65 -16.5 16.75 -16.6 L16.45 -16.6 Q17.05 -20.9 22.25 -20.9 L22.85 -20.85 Q27.0 -20.25 29.55 -21.5 L29.55 -21.8 18.55 -21.5 18.0 -21.65 Q15.75 -22.65 14.3 -24.55 L14.35 -25.15 Q15.9 -31.85 17.95 -34.95 L17.95 -35.25 6.95 -26.4 M152.05 58.5 L151.65 59.05 151.55 59.25 152.45 57.85 152.05 58.5 M146.55 55.1 L146.6 55.3 146.55 54.75 146.55 55.1 M144.7 67.2 L144.6 67.25 143.55 68.55 143.7 68.4 144.55 67.5 144.7 67.2 M29.85 28.1 L29.8 28.2 29.95 28.25 29.85 28.1 M50.4 18.3 Q44.65 21.25 42.4 15.15 L42.4 14.85 Q36.5 16.2 34.1 24.1 L33.6 24.4 33.95 25.75 35.4 27.05 35.95 26.85 Q39.65 28.75 44.2 25.6 L44.8 25.6 Q53.0 25.35 57.6 28.65 L58.2 28.75 Q61.75 29.75 63.75 26.8 L63.6 26.3 Q61.5 22.9 56.75 20.1 L56.45 19.55 Q55.1 17.45 55.1 17.0 L55.25 15.95 55.25 15.15 55.0 15.1 54.95 14.9 Q54.85 13.75 54.25 13.45 L54.3 13.25 51.65 13.85 51.1 14.1 51.3 14.4 51.5 14.8 Q52.1 16.35 50.95 18.2 L50.4 18.3 M147.45 71.35 L147.55 71.25 147.55 71.35 147.45 71.35 M23.45 43.25 Q29.7 42.2 31.85 45.15 L32.0 45.7 Q26.1 47.9 23.6 43.75 L23.45 43.25 M34.05 55.7 Q40.25 57.05 46.05 57.4 L48.5 57.3 49.1 59.7 50.45 64.2 Q49.85 65.25 49.4 66.4 L49.75 66.4 Q53.3 73.55 57.25 80.35 L57.65 80.45 Q58.65 82.25 58.3 85.35 L58.3 85.95 63.35 92.55 63.8 92.7 Q63.75 94.85 64.3 96.4 L64.4 96.95 Q70.15 101.65 74.85 107.35 L74.55 107.4 Q74.65 108.25 76.7 110.65 78.15 112.35 78.95 112.85 L79.25 113.3 79.65 113.45 Q87.95 114.1 94.95 110.7 L94.95 111.0 Q92.5 123.25 86.55 131.9 86.4 132.1 86.4 132.4 73.15 141.75 64.8 156.1 L64.4 156.2 Q63.7 164.1 67.65 170.1 L68.05 170.25 Q68.25 177.35 68.05 183.7 L68.05 184.35 Q59.2 190.45 52.95 199.1 52.8 199.3 52.8 199.6 55.55 202.95 54.1 207.55 L54.0 208.15 Q49.4 210.55 46.8 214.95 L46.65 215.5 Q46.7 222.9 41.4 227.95 L35.95 232.35 Q33.1 234.3 29.55 235.65 L24.15 234.75 24.05 234.4 Q20.05 236.2 14.3 235.95 L14.3 235.65 Q12.7 226.25 7.4 220.5 7.25 220.35 6.95 220.35 4.85 203.55 -0.85 190.7 -3.0 185.9 -1.15 181.2 0.55 177.0 2.7 173.35 0.7 168.9 1.4 164.8 L1.45 164.15 Q-1.45 160.95 -2.15 155.6 L-2.2 155.0 Q-5.95 151.75 -8.55 147.2 -8.6 147.05 -8.9 147.05 -8.6 140.65 -7.2 135.4 L-7.1 134.85 Q-9.35 130.05 -13.85 127.65 -14.1 127.5 -14.4 127.5 -19.05 127.8 -22.4 123.85 L-23.6 122.6 Q-40.05 128.5 -57.8 126.95 L-58.4 126.9 Q-65.55 118.75 -71.8 109.75 -72.8 108.3 -74.3 107.35 -73.85 103.05 -74.85 98.75 L-74.9 98.2 Q-70.85 94.95 -71.8 89.0 L-71.85 88.4 Q-72.5 86.6 -73.55 85.25 L-73.7 84.75 Q-68.65 67.2 -55.25 58.0 L-54.75 57.85 Q-54.9 54.95 -54.2 52.95 L-54.15 52.35 Q-49.6 48.05 -44.25 44.55 L-43.75 44.4 Q-40.55 46.75 -37.65 46.3 L-37.05 46.25 Q-28.8 39.95 -14.4 41.95 L-13.8 42.0 Q-10.55 38.85 -7.85 41.5 -7.7 41.65 -7.7 42.0 -7.55 45.5 -6.6 47.55 L-6.5 48.1 -2.95 51.3 Q-2.8 51.45 -2.8 51.75 0.55 52.05 3.35 52.9 L3.9 53.0 Q5.4 55.15 7.4 56.8 L7.55 57.25 Q11.65 57.45 14.3 58.8 L14.3 58.45 Q17.4 56.1 19.4 52.5 19.5 52.35 19.8 52.35 L34.05 55.7 M79.05 189.2 L79.05 188.6 Q86.15 184.7 90.85 178.35 L91.25 178.2 Q91.15 192.5 86.05 204.25 L84.2 208.85 Q83.4 211.0 80.9 211.2 76.95 212.05 76.65 209.35 L76.6 208.75 Q75.7 206.0 75.95 202.05 L76.0 201.45 Q77.85 199.6 78.95 197.1 L79.05 196.55 Q79.3 194.15 79.05 189.2 M-55.0 -35.7 L-56.2 -33.05 Q-57.15 -31.4 -60.05 -30.1 L-62.75 -29.1 Q-64.35 -29.1 -68.15 -31.3 -71.85 -33.45 -71.85 -34.1 L-71.55 -35.25 -70.9 -36.3 -67.25 -36.25 -65.45 -37.05 -62.0 -38.1 Q-61.4 -39.2 -60.7 -39.6 L-60.8 -39.75 -54.8 -39.55 -54.05 -38.55 Q-54.05 -38.0 -55.0 -35.7 M-49.85 -3.2 Q-48.4 -10.2 -43.1 -6.1 -42.7 -5.8 -43.0 -5.25 -44.0 -3.15 -45.6 -1.95 -49.1 0.5 -49.8 -2.55 L-49.85 -3.2 M-38.85 -14.8 Q-34.35 -15.45 -34.7 -11.65 -34.85 -9.95 -32.75 -9.3 -31.3 -4.05 -27.55 -1.35 L-27.85 -1.35 Q-34.1 3.7 -37.5 -0.85 L-37.65 -1.35 Q-39.0 -2.8 -35.45 -5.35 -33.9 -6.45 -35.2 -7.45 -38.5 -9.35 -38.85 -14.2 L-38.85 -14.8 M-26.9 34.8 Q-29.0 35.85 -28.45 33.5 -25.05 29.55 -23.95 33.15 -23.45 34.85 -26.65 34.7 L-26.9 34.8 M-11.45 26.15 L-11.35 23.7 Q-6.25 22.9 -10.25 26.65 -11.6 27.9 -11.45 26.15 M-12.6 28.6 Q-6.2 27.1 -9.9 34.2 -10.15 34.7 -10.85 34.1 -12.75 32.45 -12.6 28.6" fill="#6fc9d3" fill-rule="evenodd" stroke="none"/>
  </g>
</svg>
