<?xml version="1.0" encoding="UTF-8" standalone="no"?>
<svg xmlns:xlink="http://www.w3.org/1999/xlink" height="33.95px" width="20.3px" xmlns="http://www.w3.org/2000/svg">
  <g transform="matrix(1.0, 0.0, 0.0, 1.0, -49.15, 76.4)">
    <path d="M59.15 -75.25 Q59.2 -75.95 59.85 -75.95 L59.6 -76.4 60.15 -75.95 Q61.15 -75.75 63.1 -74.45 L66.5 -71.8 66.9 -71.55 66.75 -71.35 66.55 -70.85 66.1 -70.8 65.8 -70.7 65.6 -70.85 62.8 -70.85 59.3 -71.5 Q58.95 -72.7 58.95 -74.65 L59.15 -75.25 M59.15 -51.55 L60.65 -53.65 63.8 -59.35 63.35 -62.05 62.9 -65.55 Q62.9 -69.45 64.25 -69.3 65.75 -69.15 67.45 -63.2 L68.4 -60.65 69.25 -58.0 69.45 -55.0 69.4 -52.75 69.25 -50.75 Q68.75 -49.45 66.9 -48.9 L63.4 -47.4 61.0 -46.2 60.2 -46.7 60.15 -46.65 60.05 -46.5 59.6 -46.45 56.15 -46.5 Q53.55 -46.75 52.35 -47.3 L52.0 -47.3 Q51.3 -47.3 51.15 -47.8 L51.15 -48.35 51.15 -48.65 51.05 -48.6 51.05 -48.9 51.25 -49.1 51.75 -50.0 Q52.8 -51.1 55.2 -51.0 58.2 -50.9 59.15 -51.55 M49.2 -45.25 Q53.7 -41.5 50.05 -42.8 49.0 -43.2 49.2 -45.25" fill="#6fc9d3" fill-rule="evenodd" stroke="none"/>
  </g>
</svg>
