<?xml version="1.0" encoding="UTF-8" standalone="no"?>
<svg xmlns:xlink="http://www.w3.org/1999/xlink" height="166.85px" width="191.65px" xmlns="http://www.w3.org/2000/svg">
  <g transform="matrix(1.0, 0.0, 0.0, 1.0, 95.1, 90.4)">
    <path d="M31.7 -82.55 L32.0 -82.2 31.45 -82.4 31.7 -82.55 M42.95 -50.8 L43.0 -50.25 Q39.95 -48.2 38.55 -50.1 L38.1 -50.25 Q33.75 -58.7 25.8 -63.55 L25.3 -63.65 Q21.6 -60.35 18.9 -66.0 L18.85 -66.05 Q18.5 -65.35 16.4 -63.8 L15.6 -63.05 13.2 -60.7 12.25 -59.3 12.55 -59.3 Q15.3 -54.15 22.95 -55.3 L22.95 -55.0 Q23.4 -53.5 19.4 -50.55 19.25 -50.45 19.25 -50.15 L27.9 -37.55 Q28.4 -36.7 27.8 -36.1 31.8 -31.4 28.35 -23.6 L26.0 -18.95 Q16.85 -15.9 9.4 -11.2 9.2 -11.05 8.9 -11.05 6.75 -10.8 4.45 -13.3 L4.0 -13.45 Q-0.4 -11.45 -3.2 -7.85 L-3.35 -7.35 Q-1.35 -1.7 3.45 1.05 L4.0 1.2 Q7.4 6.65 7.65 15.25 L7.65 15.85 Q3.3 18.55 -0.3 21.65 L-0.3 21.35 Q-3.0 17.05 -6.9 13.8 -8.8 12.15 -11.45 10.75 L-13.55 9.45 Q-14.25 9.0 -15.55 10.35 -17.3 15.35 -18.75 7.8 -19.75 2.35 -23.5 -0.05 -25.0 3.35 -28.25 1.55 L-28.4 1.2 Q-32.1 -8.85 -39.5 -15.15 L-40.0 -15.3 Q-42.95 -15.45 -47.35 -14.15 L-47.95 -14.1 Q-50.15 -12.35 -50.95 -9.15 L-51.0 -8.6 Q-59.0 -2.25 -65.85 5.3 L-66.25 5.45 Q-64.75 15.65 -69.15 22.65 L-69.3 23.2 Q-73.7 22.65 -74.95 18.5 -77.4 10.5 -80.95 3.05 -84.15 -3.55 -85.15 -12.8 -85.2 -13.15 -85.8 -13.45 -89.05 -10.25 -93.0 -13.65 L-93.15 -14.1 Q-92.0 -16.2 -95.1 -18.45 L-93.7 -19.65 -91.15 -22.0 -85.5 -22.3 Q-84.05 -23.05 -84.05 -26.8 -84.05 -27.45 -84.8 -28.35 -84.45 -30.45 -82.15 -32.9 -79.15 -36.15 -79.15 -38.25 -79.15 -39.1 -80.85 -41.9 L-82.75 -45.0 -83.8 -48.25 Q-84.8 -49.65 -86.8 -48.6 L-87.35 -48.7 -87.65 -49.35 Q-88.2 -50.25 -89.1 -50.75 L-92.2 -50.4 -92.4 -50.3 -92.15 -52.35 -91.25 -53.1 -88.75 -53.5 -84.15 -54.0 -80.55 -53.5 -76.4 -53.05 Q-74.7 -53.05 -73.55 -53.55 L-72.7 -53.05 Q-71.05 -53.95 -67.25 -55.1 -61.45 -56.85 -61.0 -58.05 -60.55 -59.2 -58.35 -59.85 -56.05 -60.55 -55.75 -60.9 -55.4 -61.35 -55.5 -62.55 L-55.75 -64.1 -55.6 -65.0 -53.05 -65.35 Q-51.55 -64.3 -50.65 -62.3 L-48.95 -58.95 Q-45.95 -54.95 -34.5 -53.75 L-31.85 -53.45 -30.5 -53.25 -27.1 -53.5 -20.5 -53.75 -20.55 -53.85 -19.95 -53.85 -19.6 -53.9 -19.4 -53.9 Q-15.35 -54.9 -12.9 -58.15 L-8.6 -63.8 Q-7.4 -64.9 -2.55 -67.5 L-1.3 -67.3 -0.65 -67.1 -0.3 -67.3 1.55 -68.3 2.5 -69.55 Q4.15 -71.85 4.25 -72.45 L4.5 -73.55 4.0 -75.25 Q3.05 -76.85 0.8 -76.85 L-2.15 -76.4 -2.15 -76.5 Q-1.65 -77.5 -1.65 -78.05 -1.65 -79.3 -1.15 -80.0 -0.35 -81.05 1.75 -81.4 5.95 -82.15 6.7 -82.45 8.25 -83.0 8.35 -84.25 L8.45 -84.95 8.4 -86.35 8.45 -88.2 9.25 -89.9 10.6 -90.0 10.95 -90.25 11.3 -90.05 11.95 -90.1 12.2 -90.35 12.7 -90.15 14.25 -90.25 14.4 -90.4 16.55 -90.35 17.45 -88.45 Q17.9 -87.1 18.4 -86.5 L20.45 -84.6 22.0 -82.9 Q24.6 -81.25 27.2 -81.25 29.1 -81.25 30.7 -81.95 L31.25 -82.4 31.9 -82.0 32.15 -82.05 32.05 -82.15 32.0 -82.2 32.25 -82.05 32.35 -82.05 32.45 -81.9 32.85 -81.5 33.55 -80.25 Q33.55 -79.6 31.6 -76.8 29.65 -74.0 29.65 -73.0 29.65 -72.55 32.15 -70.2 L34.8 -67.65 34.75 -67.55 35.85 -67.45 36.15 -67.45 Q36.0 -66.3 36.2 -64.9 L36.25 -64.3 Q33.55 -63.05 34.3 -61.2 L34.45 -60.6 Q41.05 -58.05 42.95 -50.8 M31.55 -81.95 L31.5 -82.0 31.4 -81.9 31.55 -81.95 M9.05 -4.6 Q6.05 0.2 4.8 -5.55 L4.6 -7.35 Q12.15 -9.55 9.05 -4.6 M30.85 -18.95 L30.85 -19.6 Q36.65 -26.1 36.3 -16.5 36.2 -13.05 32.7 -13.45 30.7 -15.15 30.85 -18.95 M96.5 59.4 L96.55 62.7 96.5 66.85 96.55 69.4 Q96.55 71.65 96.1 72.85 L96.1 72.9 96.05 73.5 95.8 73.75 95.7 73.65 95.3 74.0 94.95 74.0 94.9 73.95 94.8 74.0 94.15 73.9 93.8 73.9 83.4 70.9 82.8 70.85 Q82.05 68.15 83.7 65.35 L83.4 65.35 Q78.0 59.8 69.65 56.55 69.4 56.5 69.35 55.55 L69.35 54.35 Q68.1 53.5 65.85 50.55 L65.7 50.05 Q73.9 46.65 76.0 55.0 L76.1 55.55 Q79.0 52.95 82.85 51.4 L83.4 51.3 Q88.9 52.65 93.7 54.75 L95.2 55.75 96.45 56.3 96.55 56.75 96.4 58.7 96.5 59.4 M52.3 19.6 L53.55 21.9 53.5 23.5 53.65 24.95 Q53.95 26.05 54.45 26.6 L54.35 27.45 53.3 28.85 Q51.15 31.45 48.5 31.45 48.15 31.45 46.45 29.4 L44.55 27.1 Q45.3 26.05 48.65 24.1 51.45 22.45 51.45 21.05 L51.45 20.85 51.95 20.2 52.3 19.6 M42.2 15.25 Q43.5 14.15 44.4 13.9 43.95 14.15 44.0 14.95 L44.5 16.2 Q43.65 18.35 45.2 21.35 43.65 20.9 42.35 19.2 41.0 17.4 41.0 16.5 L42.2 15.25 M48.2 15.15 L49.8 13.4 50.5 13.85 50.65 14.0 50.75 14.45 51.05 16.2 50.8 18.15 Q50.45 18.6 47.7 20.0 L47.5 18.55 47.3 16.9 Q47.3 16.15 48.2 15.15 M55.9 45.2 Q56.1 39.25 60.2 41.9 61.25 42.55 61.05 43.05 60.25 45.45 58.65 48.3 58.35 48.85 57.2 48.55 55.35 48.15 55.9 45.2 M35.75 1.2 Q39.5 -5.3 38.25 2.95 37.8 6.45 41.25 7.9 42.45 10.8 38.8 10.65 L38.8 10.35 Q37.0 7.9 35.8 1.8 L35.75 1.2 M33.65 19.45 Q33.25 23.6 31.5 21.35 33.8 18.25 33.65 19.45 M18.65 38.45 L20.95 34.7 21.1 34.2 Q23.3 33.6 24.85 32.5 25.05 32.35 25.4 32.35 26.5 28.55 31.5 28.7 L32.1 28.7 Q37.0 32.4 33.15 37.1 L32.7 37.25 Q33.15 41.4 35.0 44.05 L35.15 44.55 Q31.1 51.2 27.35 58.05 27.2 58.3 27.2 58.6 L13.15 56.25 12.55 56.15 Q9.9 51.2 9.5 43.95 L9.5 43.35 Q14.25 41.4 18.15 38.6 L18.65 38.45 M35.75 54.95 Q38.05 51.7 39.35 51.0 40.15 50.6 40.65 51.9 44.4 50.65 43.55 55.15 43.35 56.2 43.1 58.6 41.8 56.35 39.0 56.75 L37.0 57.4 Q36.2 60.7 35.8 55.55 L35.75 54.95 M27.8 70.25 Q34.85 69.0 33.0 72.1 32.2 73.35 29.65 73.35 27.2 73.3 27.8 70.25 M39.45 69.6 Q44.7 69.55 43.7 72.65 38.5 72.4 37.95 74.95 37.3 77.6 34.8 75.5 34.1 74.95 34.55 73.3 38.2 73.6 38.5 69.7 L39.45 69.6 M0.95 61.65 L-3.4 61.8 Q-3.65 61.65 -3.95 61.65 -12.9 47.05 -23.35 34.05 L-23.5 33.55 Q-20.25 33.95 -17.95 35.3 L-17.4 35.4 Q-13.3 41.1 -7.5 45.0 -7.3 45.2 -7.0 45.2 -2.9 51.45 0.25 58.3 0.95 59.85 0.95 61.65 M2.3 66.35 Q2.15 66.25 2.15 65.95 7.8 65.5 10.4 67.8 L10.1 67.8 Q5.1 68.2 2.3 66.35 M19.35 68.25 L19.9 68.4 Q19.7 70.1 13.75 69.2 12.0 68.95 11.3 67.8 16.15 66.3 19.35 68.25 M57.75 54.95 Q68.5 55.6 60.1 57.5 57.35 58.15 57.75 54.95 M55.9 71.45 Q51.75 74.0 47.15 75.85 44.2 77.05 44.95 73.9 48.3 68.8 55.85 71.1 L55.9 71.45 M-17.35 21.35 L-17.4 20.75 Q-13.85 26.05 -9.25 30.35 -4.9 34.5 -4.55 42.1 L-5.15 42.1 -6.2 41.45 -6.2 41.4 Q-11.1 37.7 -11.85 29.9 L-11.9 29.3 Q-16.45 27.1 -17.35 21.35 M-84.8 -58.15 L-85.0 -58.2 -84.85 -58.35 -84.8 -58.15 M-65.05 21.95 Q-60.1 19.9 -59.1 27.5 -58.7 30.4 -60.75 31.15 -65.25 32.25 -64.75 28.05 L-65.05 28.05 -65.05 22.55 -65.05 21.95" fill="#6fc9d3" fill-rule="evenodd" stroke="none"/>
  </g>
</svg>
