<?xml version="1.0" encoding="UTF-8" standalone="no"?>
<svg xmlns:xlink="http://www.w3.org/1999/xlink" height="278.9px" width="243.4px" xmlns="http://www.w3.org/2000/svg">
  <g transform="matrix(1.0, 0.0, 0.0, 1.0, 138.05, 71.35)">
    <path d="M79.75 -70.65 Q93.55 -72.8 105.35 -68.5 L100.9 -63.8 Q100.75 -63.6 100.45 -63.6 99.2 -55.05 90.65 -53.95 86.65 -53.4 87.6 -50.8 94.05 -46.1 87.55 -48.85 L87.0 -48.95 Q83.15 -50.35 85.05 -45.85 L85.15 -45.3 Q81.9 -42.15 74.15 -43.4 L73.55 -43.45 65.75 -38.35 Q65.6 -38.25 65.6 -37.95 49.5 -35.75 43.15 -23.85 L43.0 -23.3 Q36.5 -22.85 33.65 -26.2 L33.25 -26.35 Q32.65 -32.0 32.95 -37.95 L33.25 -37.95 Q37.0 -41.5 40.4 -45.4 L40.55 -45.9 Q37.1 -55.0 30.05 -60.4 L29.55 -60.55 Q23.7 -60.1 18.65 -62.05 L18.6 -62.4 Q31.7 -65.15 43.85 -68.2 48.45 -69.35 52.2 -69.2 65.75 -68.5 79.75 -70.65 M12.55 -64.65 Q4.85 -61.2 -2.8 -60.95 -4.05 -60.9 -4.65 -61.8 -2.05 -63.15 -0.75 -65.95 L-0.35 -66.05 Q6.1 -64.55 10.5 -66.9 L10.65 -67.3 Q10.05 -70.75 18.6 -70.8 L30.8 -70.35 Q20.85 -68.35 12.55 -64.65 M1.45 -33.7 Q2.6 -30.2 -0.1 -28.75 0.85 -28.5 -0.35 -28.5 L-0.35 -28.6 -1.25 -28.3 Q-1.85 -28.1 -2.2 -27.6 -10.5 -28.15 -10.75 -33.7 L-10.75 -34.3 Q-6.2 -36.2 -1.6 -36.7 L-0.95 -36.75 Q-3.5 -42.2 -9.65 -47.0 L-10.15 -47.15 Q-17.55 -46.45 -26.4 -48.65 -26.65 -48.65 -26.65 -49.55 -24.75 -51.65 -21.2 -52.3 L-21.15 -52.65 Q-12.45 -52.75 -6.4 -49.7 L-5.85 -49.55 -0.95 -49.25 -0.95 -48.95 Q1.25 -46.25 5.15 -45.35 L5.75 -45.3 Q7.2 -40.05 10.25 -36.4 11.05 -35.45 10.0 -35.5 3.45 -38.65 1.6 -34.25 L1.45 -33.7 M7.6 -4.35 Q7.9 -1.6 5.85 -1.05 L5.75 -0.7 Q-2.85 3.35 -16.2 4.0 -20.45 4.25 -20.5 6.65 -14.85 8.8 -18.55 11.7 L-18.7 12.15 Q-18.65 15.2 -14.4 16.95 L-13.8 17.0 Q-19.05 20.3 -21.45 20.05 L-21.15 20.05 Q-18.1 17.55 -21.75 16.1 L-21.75 16.4 Q-31.75 18.65 -36.85 25.65 L-37.0 26.2 -41.9 27.35 -42.5 27.4 Q-49.45 33.65 -55.8 38.0 L-55.95 38.4 Q-55.05 44.2 -58.3 46.0 L-58.4 46.35 Q-67.8 50.1 -72.9 58.05 L-73.05 58.55 Q-72.7 64.6 -73.35 71.35 L-73.65 71.4 Q-76.1 68.6 -75.55 62.85 L-75.5 62.25 Q-77.45 61.1 -78.75 59.35 L-79.15 59.15 Q-84.6 57.0 -89.55 57.3 L-90.15 57.35 Q-95.1 62.15 -101.25 58.7 L-101.8 58.55 -102.75 58.95 -102.85 58.7 -102.9 58.65 -106.0 60.3 -108.75 61.75 -108.75 61.85 -108.65 61.9 -108.75 62.0 -108.8 62.05 -109.05 62.2 Q-119.25 69.65 -117.05 86.0 L-117.0 86.6 Q-114.3 90.3 -110.2 92.6 L-109.65 92.7 Q-101.1 91.2 -97.1 85.0 -96.45 83.95 -94.4 84.15 -91.5 86.35 -94.9 90.95 -98.1 95.3 -96.85 98.2 -93.7 100.9 -86.45 99.75 L-86.45 100.05 Q-85.8 105.6 -87.35 111.65 L-87.05 111.65 Q-84.8 118.5 -78.5 118.4 L-77.9 118.4 Q-79.0 121.05 -81.65 119.75 L-82.2 119.6 Q-91.3 115.0 -95.5 105.5 L-95.6 104.95 Q-105.95 103.65 -111.05 97.15 -111.2 97.0 -111.5 97.0 L-118.2 97.55 -118.85 97.6 Q-127.8 93.75 -135.8 88.85 L-135.95 88.45 Q-136.9 85.65 -136.0 81.75 L-135.95 81.1 -138.05 77.55 -135.95 74.6 Q-134.35 71.75 -134.35 68.55 -134.35 66.35 -135.4 63.1 -136.5 59.9 -136.5 59.0 L-135.9 57.3 -136.1 55.2 Q-136.1 54.5 -135.2 53.65 L-134.55 53.1 Q-131.8 53.45 -130.35 54.15 L-128.45 55.1 -125.15 55.5 -123.45 55.3 -122.9 54.65 Q-119.9 51.25 -118.0 47.05 L-117.4 45.55 Q-116.9 42.5 -116.9 41.0 -116.8 40.25 -115.75 39.0 L-115.7 39.0 -115.3 38.45 -114.7 37.7 -115.0 38.25 -114.85 38.15 -114.75 38.1 -114.45 37.7 -114.25 37.05 -114.1 36.7 -114.15 35.8 Q-114.15 34.05 -113.65 33.45 L-112.35 31.75 Q-111.6 29.15 -111.6 27.15 -111.6 25.7 -109.1 21.65 L-106.65 17.45 -107.3 11.5 -106.8 8.5 Q-106.3 6.65 -106.3 5.3 -106.3 4.65 -107.15 0.95 L-108.0 -3.5 Q-108.0 -4.85 -107.05 -6.8 -106.1 -8.75 -106.1 -10.45 -106.1 -11.2 -106.85 -13.75 L-107.65 -16.7 -106.8 -19.1 Q-105.95 -21.45 -105.95 -22.9 L-106.45 -27.7 -106.05 -34.4 Q-105.7 -39.95 -105.7 -42.15 -105.7 -43.05 -105.2 -43.85 L-105.1 -43.8 -105.1 -44.05 Q-95.4 -44.75 -85.3 -42.25 -83.25 -40.0 -80.35 -38.7 L-79.8 -38.6 Q-74.0 -39.55 -71.7 -37.5 L-71.25 -37.35 Q-69.2 -40.1 -64.5 -40.4 L-63.9 -40.4 -50.4 -38.45 Q-47.55 -38.1 -46.8 -40.4 -40.0 -39.85 -41.8 -45.35 L-41.9 -45.9 Q-36.5 -49.8 -36.7 -44.7 L-36.4 -44.7 -30.75 -38.75 -30.3 -38.6 Q-27.85 -42.85 -21.15 -42.85 L-20.5 -42.85 Q-21.3 -39.35 -24.25 -38.1 L-24.8 -37.95 Q-32.85 -37.8 -36.45 -36.25 L-37.0 -36.15 -40.55 -32.9 -40.7 -32.45 -46.8 -31.85 -47.4 -31.85 Q-56.25 -26.0 -64.35 -19.45 L-64.5 -19.05 Q-63.5 -14.85 -60.4 -12.7 -60.25 -12.6 -60.25 -12.3 -51.3 -10.55 -48.15 -6.1 L-48.0 -5.6 Q-50.6 -0.7 -46.3 1.95 L-46.2 2.35 Q-40.25 0.65 -39.15 -6.15 L-38.85 -6.2 Q-30.75 -8.75 -29.15 -17.8 L-29.1 -18.4 Q-26.1 -21.25 -23.95 -25.0 L-23.6 -25.15 Q-16.05 -27.2 -12.1 -22.55 -11.95 -22.4 -11.95 -22.1 -12.75 -18.0 -9.45 -16.1 L-8.9 -15.95 Q-5.3 -17.55 -2.35 -19.8 -2.2 -19.95 -2.2 -20.25 0.15 -17.7 -0.35 -12.3 L-0.35 -11.7 Q0.9 -5.6 7.55 -4.65 L7.6 -4.35 M8.5 9.7 L8.2 9.7 -2.1 9.4 -2.2 9.1 Q1.55 5.2 4.55 3.9 L4.55 4.2 Q5.15 6.95 8.5 9.7 M-88.95 -50.2 Q-77.8 -57.85 -66.25 -50.9 L-65.75 -50.8 Q-62.1 -51.85 -59.2 -50.45 -58.7 -50.2 -57.8 -50.85 L-57.2 -51.4 Q-55.05 -50.45 -54.9 -47.15 L-54.55 -45.95 -54.1 -45.3 Q-59.0 -43.35 -65.1 -44.6 L-65.75 -44.7 -69.3 -42.65 -69.4 -42.25 Q-73.7 -42.65 -77.05 -44.05 L-76.15 -43.9 Q-74.8 -43.7 -74.9 -44.7 -72.2 -45.8 -74.4 -47.6 L-74.9 -47.75 Q-77.2 -49.4 -79.85 -50.65 L-80.4 -50.8 Q-84.1 -49.55 -88.9 -49.9 L-88.95 -50.2 M-24.2 -58.75 Q-19.6 -62.35 -14.9 -58.9 L-14.4 -58.75 -9.95 -58.75 -9.35 -58.35 -8.2 -58.2 Q-6.35 -56.8 -4.6 -56.3 L-4.15 -55.7 -5.05 -55.05 Q-14.55 -54.3 -23.8 -57.4 -24.2 -57.5 -24.2 -58.75 M-14.4 -67.3 L-9.15 -67.1 Q-8.75 -65.6 -11.35 -65.45 -14.25 -65.35 -14.4 -67.3 M-45.55 -50.8 Q-40.4 -53.95 -39.75 -51.75 -39.5 -50.85 -41.1 -50.25 -43.45 -49.3 -45.55 -50.8 M-35.8 -32.45 Q-31.3 -35.1 -29.1 -30.65 L-29.55 -30.9 -29.7 -31.25 -35.75 -32.15 -35.8 -32.45 M-69.5 13.25 Q-63.85 14.7 -63.9 11.5 L-64.0 11.15 Q-70.05 7.75 -76.75 12.75 -73.6 12.2 -69.5 13.25 M-69.4 17.65 L-69.85 17.8 -74.9 24.95 -74.9 25.25 Q-70.6 23.15 -69.4 17.65 M-58.4 24.35 L-58.45 24.05 Q-62.2 23.35 -65.1 26.8 -64.3 28.4 -62.9 28.15 -57.3 27.1 -58.4 24.35 M-52.0 23.55 Q-50.5 24.0 -50.1 22.8 -48.25 17.5 -54.1 21.9 -53.2 23.15 -52.0 23.55 M-55.95 18.25 L-55.65 18.25 Q-59.7 13.4 -62.7 20.05 L-62.55 20.4 Q-60.35 21.35 -55.95 18.25 M-67.3 67.65 Q-66.9 67.05 -65.7 67.1 -61.6 67.25 -63.85 70.75 -66.6 71.95 -67.75 75.35 L-68.55 75.25 Q-70.25 74.35 -69.95 71.35 L-67.3 67.65 M-68.05 92.3 Q-72.25 94.4 -71.8 90.3 -63.5 90.0 -68.05 92.3 M-69.35 87.25 Q-73.25 80.5 -82.1 82.05 L-82.2 82.35 Q-85.5 83.2 -85.25 80.5 L-85.25 79.9 Q-75.75 75.75 -66.75 80.25 -61.95 82.6 -58.95 86.6 -63.0 88.7 -68.75 87.3 L-69.35 87.25 M-44.3 90.3 Q-36.7 90.25 -39.45 93.35 L-40.6 93.6 Q-45.1 94.45 -44.3 90.3 M-45.5 89.05 Q-47.35 93.35 -53.45 93.6 -60.1 93.85 -62.65 90.3 -57.5 90.85 -55.65 87.8 -55.3 87.25 -54.05 87.15 -48.65 87.0 -45.5 89.05 M-34.5 92.25 Q-35.55 92.25 -35.15 90.3 -30.6 92.4 -34.5 92.25 M-31.55 114.45 L-31.45 114.1 Q-26.8 121.1 -18.2 127.15 -18.05 127.25 -18.05 127.55 -12.85 127.3 -9.1 128.55 L-9.15 128.8 -8.8 128.95 -8.55 129.05 Q-7.3 129.5 -7.3 130.4 -7.3 131.4 -9.35 133.55 -11.4 135.65 -12.4 135.65 L-13.95 135.05 -15.6 134.75 Q-16.25 134.4 -16.75 134.4 -17.35 134.4 -19.0 135.75 L-19.85 136.5 -20.15 136.65 -20.3 136.75 -20.35 136.75 -22.2 136.6 -25.2 136.6 -25.4 136.55 -25.45 136.5 -25.5 136.5 -25.5 136.55 Q-27.65 135.95 -32.2 133.2 L-37.25 130.1 -38.3 130.25 -43.75 130.95 -45.25 131.5 -46.55 133.2 -47.1 133.85 -45.7 142.8 -47.25 145.3 -49.6 149.75 -51.35 153.05 -51.45 153.1 -51.9 153.3 -52.35 153.55 Q-54.95 154.35 -55.9 156.0 -56.65 157.3 -56.65 160.35 -56.8 162.1 -56.45 162.6 -56.4 162.9 -55.95 163.0 L-55.1 163.25 -54.35 163.45 -54.25 163.45 -52.3 164.05 -51.05 164.05 -49.65 164.75 -49.5 164.85 Q-48.65 165.8 -48.65 166.3 -48.65 170.6 -49.45 172.95 L-48.3 173.3 -43.5 172.7 -41.15 171.9 Q-39.5 171.5 -35.05 175.3 L-30.75 178.9 Q-27.25 182.15 -27.25 183.35 L-27.55 185.3 -26.75 187.05 -25.2 188.4 Q-22.55 190.45 -22.45 190.8 -21.8 192.45 -21.8 196.2 L-22.0 196.7 Q-22.3 197.1 -22.65 197.15 L-30.3 196.85 -30.35 198.5 Q-30.6 200.4 -31.7 201.05 L-34.25 202.6 -35.0 203.65 -35.5 204.75 -36.05 205.6 -37.3 205.6 Q-37.4 205.0 -37.7 204.9 L-38.0 204.85 -38.1 204.85 -38.8 205.25 -38.85 205.25 -39.65 206.2 Q-40.55 207.55 -41.65 207.55 -42.35 207.55 -43.1 204.75 L-43.1 204.7 -43.9 199.3 -44.85 194.3 Q-45.2 192.75 -46.85 191.45 -48.65 190.1 -49.6 191.15 L-51.2 193.1 Q-56.4 187.0 -64.45 183.75 -69.0 175.15 -74.35 167.15 -78.2 161.4 -79.75 153.2 -77.15 150.0 -77.3 144.05 -77.3 142.15 -75.9 140.45 -71.7 135.55 -69.35 128.75 -71.55 122.4 -71.8 118.1 L-71.2 118.4 Q-66.5 120.15 -64.2 113.6 L-63.85 113.5 Q-58.7 110.45 -56.55 110.75 L-56.5 111.05 Q-59.35 117.85 -54.15 116.3 L-54.05 115.95 Q-54.45 110.95 -49.8 111.05 L-49.2 111.05 Q-41.65 117.2 -31.55 114.45 M-21.5 135.45 L-21.35 135.4 -22.3 135.45 -21.5 135.45 M-46.8 142.5 L-46.8 142.55 -46.8 142.5 M-46.55 174.55 L-46.65 174.6 -46.55 174.6 -46.55 174.55" fill="#6fc9d3" fill-rule="evenodd" stroke="none"/>
  </g>
</svg>
