<?xml version="1.0" encoding="UTF-8" standalone="no"?>
<svg xmlns:xlink="http://www.w3.org/1999/xlink" height="122.45px" width="93.15px" xmlns="http://www.w3.org/2000/svg">
  <g transform="matrix(1.0, 0.0, 0.0, 1.0, 46.65, 52.5)">
    <path d="M46.05 -50.6 L46.5 -49.1 46.45 -46.85 Q46.15 -43.8 46.2 -42.2 45.65 -36.85 45.65 -35.9 45.65 -35.05 45.95 -33.3 L46.2 -30.8 46.05 -29.1 46.05 -28.25 Q45.5 -27.65 45.2 -26.25 44.85 -24.85 44.85 -23.6 44.85 -22.75 45.65 -20.25 L46.35 -17.6 46.35 -16.85 45.25 -13.6 44.1 -10.5 Q44.1 -9.4 45.1 -6.3 46.05 -3.2 46.05 -2.15 46.05 -1.4 45.45 0.8 44.85 2.95 44.85 4.05 44.85 4.95 45.35 7.5 L45.85 10.6 44.6 12.2 Q43.2 13.9 42.7 15.1 L41.05 18.05 40.2 19.5 40.6 22.1 Q40.6 24.3 39.25 25.95 37.9 27.6 37.9 30.15 36.45 31.75 35.55 33.65 35.2 34.4 35.15 35.6 L35.0 37.55 Q34.65 39.05 32.7 42.35 L30.9 45.6 30.9 45.7 Q29.25 46.6 28.1 46.6 27.4 46.6 23.7 44.95 20.0 43.25 18.15 43.25 L8.7 43.8 7.75 43.25 Q6.4 42.4 3.75 41.2 -0.5 40.55 -3.35 41.95 L-4.3 42.5 Q-5.5 41.25 -7.0 40.35 L-7.55 40.2 Q-9.5 31.75 -8.8 23.1 L-8.75 22.5 Q-2.35 13.3 5.3 5.4 6.35 4.35 6.95 4.9 L7.75 4.75 Q11.75 1.4 8.5 -2.1 8.35 -2.25 8.35 -2.55 5.95 -2.0 3.45 -0.45 2.75 0.0 2.25 -1.35 5.8 -5.7 6.2 -14.15 6.2 -15.4 7.15 -16.0 5.9 -19.45 6.4 -20.9 L6.5 -21.5 Q2.75 -25.95 -3.15 -28.45 L-3.25 -28.85 Q-8.35 -29.85 -13.05 -31.2 L-13.65 -31.25 Q-19.55 -28.45 -26.5 -29.15 L-26.5 -28.85 Q-30.8 -27.05 -34.5 -24.7 -34.7 -24.55 -35.05 -24.55 -35.5 -25.0 -37.45 -24.25 L-37.45 -24.55 Q-41.95 -21.75 -43.5 -22.4 L-43.6 -22.7 Q-41.3 -25.25 -46.6 -26.1 L-46.65 -26.4 Q-43.35 -29.55 -40.9 -33.6 L-40.55 -33.7 Q-33.7 -34.2 -29.7 -37.55 -29.55 -37.7 -29.55 -38.0 -29.8 -40.55 -34.95 -41.35 L-35.05 -41.65 Q-27.45 -41.65 -22.95 -43.75 -22.8 -43.8 -22.8 -44.1 -22.55 -45.9 -21.35 -48.25 L-21.0 -48.4 Q-0.1 -55.6 23.45 -50.1 L37.55 -49.55 44.95 -50.5 46.05 -50.6 M46.3 1.15 L46.35 1.0 46.35 1.1 46.3 1.15 M46.25 -12.85 L46.05 -12.65 46.35 -13.35 46.35 -12.95 46.25 -12.85 M46.05 -22.75 L46.35 -21.95 46.35 -21.4 Q45.85 -23.1 45.85 -23.55 L45.9 -23.85 46.05 -22.75 M46.35 12.2 L46.1 12.35 46.35 11.9 46.35 12.2 M35.65 44.45 L35.65 44.5 35.55 44.5 35.65 44.45 M36.1 37.9 L36.15 37.45 36.2 37.65 36.1 37.9 M38.8 31.4 L38.55 31.55 38.7 31.3 38.8 31.4" fill="#6fc9d3" fill-rule="evenodd" stroke="none"/>
    <path d="M10.05 42.05 L10.2 42.4 10.15 42.8 Q10.9 42.2 12.15 42.3 L14.5 42.6 15.4 42.3 16.65 41.6 Q17.05 42.15 16.95 42.6 L16.95 42.65 Q17.55 41.85 17.85 41.85 L18.8 42.55 19.05 42.2 Q19.5 42.35 19.5 42.85 L20.95 42.15 21.45 42.5 20.55 43.1 Q21.65 43.35 23.05 44.2 26.65 46.35 27.95 46.35 28.55 46.35 28.85 45.9 29.25 45.3 29.85 45.1 L30.1 45.0 Q30.3 45.0 30.3 45.3 30.3 46.2 29.5 47.0 L29.1 47.35 Q25.7 47.05 24.65 46.4 23.1 45.45 19.75 45.45 L17.55 45.5 17.15 45.85 16.85 45.9 16.5 46.2 15.95 47.9 15.4 49.2 Q15.4 49.8 16.05 51.1 L15.85 52.0 15.6 52.85 17.75 60.7 Q17.75 64.3 17.25 65.1 L14.7 69.95 Q13.1 67.8 11.15 65.95 11.0 65.8 10.7 65.8 10.95 63.4 10.2 62.1 L10.1 61.55 Q6.3 56.75 4.3 50.0 3.75 48.3 2.15 47.5 -0.15 48.55 -0.85 51.2 L-0.9 51.75 Q2.65 57.65 2.45 63.35 L2.15 62.75 Q-1.15 60.25 -0.35 56.05 L-0.3 55.45 Q-2.75 50.95 -2.15 46.25 L-2.15 45.65 -2.65 44.7 -2.55 44.7 -2.65 44.5 -4.45 41.9 -4.35 41.8 -4.45 41.7 -4.45 41.55 -4.75 41.15 -4.7 40.7 Q-3.9 40.75 -3.0 41.5 L-3.7 40.45 Q-3.8 40.25 -3.3 40.25 -3.05 40.25 -3.0 40.5 L-2.75 40.7 -0.25 40.15 2.9 39.65 3.55 40.15 4.05 40.8 Q4.45 40.4 4.75 40.4 5.05 40.4 5.35 40.7 L5.7 41.25 6.0 41.05 6.6 40.85 7.45 41.6 Q8.5 42.25 9.7 41.95 L10.05 42.05" fill="#6fc9d3" fill-rule="evenodd" stroke="none"/>
  </g>
</svg>
